HIERARCHY
ROOT Hips
{
 OFFSET 0.000000 0.000000 0.000000
 CHANNELS 6 Xposition Yposition Zposition Yrotation Xrotation Zrotation
 JOINT Chest
 {
  OFFSET 0.000000 11.395451 -0.039534
  CHANNELS 3 Yrotation Xrotation Zrotation
  JOINT Chest2
  {
   OFFSET 0.000000 9.398669 0.071813
   CHANNELS 3 Yrotation Xrotation Zrotation
   JOINT Chest3
   {
    OFFSET 0.000000 8.489801 0.000000
    CHANNELS 3 Yrotation Xrotation Zrotation
    JOINT Chest4
    {
     OFFSET 0.000000 8.489801 0.000000
     CHANNELS 3 Yrotation Xrotation Zrotation
     JOINT Neck
     {
      OFFSET 0.000000 12.404889 0.000000
      CHANNELS 3 Yrotation Xrotation Zrotation
      JOINT Head
      {
       OFFSET 0.000000 8.903270 0.092239
       CHANNELS 3 Yrotation Xrotation Zrotation
       End Site
       {
        OFFSET 0.000000 17.592497 0.007158
       }
      }
     }
     JOINT RightCollar
     {
      OFFSET -3.196775 6.966722 0.000000
      CHANNELS 3 Yrotation Xrotation Zrotation
      JOINT RightShoulder
      {
       OFFSET -15.955896 0.000000 0.000000
       CHANNELS 3 Yrotation Xrotation Zrotation
       JOINT RightElbow
       {
        OFFSET -24.792472 0.000000 0.000000
        CHANNELS 3 Yrotation Xrotation Zrotation
        JOINT RightWrist
        {
         OFFSET -20.900115 0.000000 0.025002
         CHANNELS 3 Yrotation Xrotation Zrotation
         End Site
         {
          OFFSET -16.056692 0.000000 0.000000
         }
        }
       }
      }
     }
     JOINT LeftCollar
     {
      OFFSET 3.196775 6.966722 0.000000
      CHANNELS 3 Yrotation Xrotation Zrotation
      JOINT LeftShoulder
      {
       OFFSET 15.955896 0.000000 0.000000
       CHANNELS 3 Yrotation Xrotation Zrotation
       JOINT LeftElbow
       {
        OFFSET 24.792472 0.000000 0.000000
        CHANNELS 3 Yrotation Xrotation Zrotation
        JOINT LeftWrist
        {
         OFFSET 20.900115 0.000000 0.025002
         CHANNELS 3 Yrotation Xrotation Zrotation
         End Site
         {
          OFFSET 16.056692 0.000000 0.000000
         }
        }
       }
      }
     }
    }
   }
  }
 }
 JOINT RightHip
 {
  OFFSET -9.568995 0.193718 0.019767
  CHANNELS 3 Yrotation Xrotation Zrotation
  JOINT RightKnee
  {
   OFFSET 0.000000 -56.649296 0.015402
   CHANNELS 3 Yrotation Xrotation Zrotation
   JOINT RightAnkle
   {
    OFFSET 0.000000 -41.365147 0.021264
    CHANNELS 3 Yrotation Xrotation Zrotation
    JOINT RightToe
    {
     OFFSET 0.000000 -7.465940 17.672538
     CHANNELS 3 Yrotation Xrotation Zrotation
     End Site
     {
      OFFSET 0.000000 -1.736315 7.837145
     }
    }
   }
  }
 }
 JOINT LeftHip
 {
  OFFSET 9.568995 0.193718 0.019767
  CHANNELS 3 Yrotation Xrotation Zrotation
  JOINT LeftKnee
  {
   OFFSET 0.000000 -56.649296 0.015402
   CHANNELS 3 Yrotation Xrotation Zrotation
   JOINT LeftAnkle
   {
    OFFSET 0.000000 -41.365147 0.021264
    CHANNELS 3 Yrotation Xrotation Zrotation
    JOINT LeftToe
    {
     OFFSET 0.000000 -7.465940 17.672538
     CHANNELS 3 Yrotation Xrotation Zrotation
     End Site
     {
      OFFSET 0.000000 -1.736315 7.837145
     }
    }
   }
  }
 }
}
MOTION
Frames: 8
Frame Time: 0.016667
-24.503723 107.186106 318.687511 -136.668520 2.652357 -6.463574 4.528414 4.215402 1.085097 2.001356 1.884026 0.440749 2.001356 1.884026 0.440749 1.499524 1.414481 0.324364 -8.883735 16.466569 4.654780 -18.076392 -4.341557 11.691634 -1.178533 2.483300 7.275919 12.592491 -25.013893 52.552097 34.047422 -34.472027 31.807908 -6.277053 -22.325833 10.151791 0.884804 2.582191 -2.336199 -2.367679 -19.270676 -43.789140 -36.009477 -51.098832 -46.349203 13.555624 -15.585399 4.686550 -0.498572 -11.022329 1.783709 2.272685 17.990126 -2.536287 3.616295 -8.510909 6.812483 0.000000 0.000000 0.000000 14.075060 -8.259584 11.254224 -0.518823 13.674734 1.207226 3.747617 -9.005828 -3.447499 0.000000 0.000000 0.000000
-24.748114 107.196646 319.036084 -138.627802 2.487670 -6.405883 4.411952 4.210605 1.088508 1.949640 1.881724 0.443392 1.949657 1.881767 0.443408 1.460757 1.412787 0.326536 -8.842211 16.435594 4.595394 -17.984866 -4.416988 11.574638 -1.215821 2.469942 7.309038 12.410750 -24.925484 52.646401 34.089471 -34.448696 31.912195 -6.314897 -22.313630 10.079198 0.863525 2.578846 -2.355641 -2.423733 -19.279686 -43.628995 -35.692554 -51.028739 -46.603375 13.482566 -15.657855 4.756197 -0.638341 -10.881451 1.342682 4.106255 18.216384 -2.145261 2.275805 -8.373757 7.079829 0.000000 0.000000 -0.000000 15.436549 -8.000120 10.890730 -0.554693 13.805538 1.231065 4.523269 -9.255362 -3.280576 0.000000 0.000000 0.000000
-24.969133 107.204712 319.325683 -140.435547 2.305013 -6.355005 4.248533 4.211582 1.122024 1.876747 1.882071 0.459747 1.876759 1.882105 0.459758 1.406035 1.413031 0.339017 -8.862436 16.399594 4.560195 -18.016129 -4.486746 11.522826 -1.264465 2.449145 7.330228 12.134379 -24.795791 52.723611 34.154814 -34.437203 32.028830 -6.373294 -22.282797 10.008964 0.822012 2.585331 -2.385561 -2.515209 -19.283243 -43.551258 -35.361634 -50.933854 -46.843557 13.373729 -15.728984 4.854432 -1.136102 -10.698874 0.972028 5.616200 18.344673 -1.875581 1.157843 -8.214347 7.035738 0.000000 -0.000000 -0.000000 16.698348 -7.746368 10.564866 -0.732346 13.968018 1.255413 5.414206 -9.499961 -3.115249 0.000000 0.000000 0.000000
-25.182084 107.206431 319.593231 -142.268525 2.140269 -6.292099 4.104954 4.201727 1.165925 1.812591 1.877683 0.480623 1.812591 1.877683 0.480623 1.357845 1.409703 0.354868 -8.919410 16.362160 4.540620 -18.120500 -4.549095 11.512064 -1.319876 2.406981 7.331246 11.828307 -24.607039 52.764024 34.217122 -34.437558 32.136002 -6.446908 -22.253363 9.973768 0.793533 2.583886 -2.437346 -2.653820 -19.258232 -43.559932 -35.132772 -50.844425 -46.989314 13.317073 -15.765515 4.956757 -1.462850 -10.614885 0.498067 5.878750 18.451090 -1.832672 0.800613 -8.054987 6.842308 0.000000 0.000000 0.000000 17.678518 -7.447551 10.287027 -0.558828 14.114865 1.287134 6.249199 -9.724969 -3.006483 0.000000 0.000000 0.000000
-25.399190 107.200058 319.863620 -144.179408 2.012616 -6.213750 4.006934 4.169680 1.222505 1.768641 1.863674 0.506923 1.768638 1.863667 0.506922 1.324815 1.399228 0.374767 -9.020458 16.325825 4.535553 -18.310769 -4.598160 11.542347 -1.382614 2.329755 7.301029 11.497681 -24.339041 52.751288 34.267758 -34.448126 32.220612 -6.544411 -22.235175 9.996106 0.794697 2.557355 -2.526754 -2.882580 -19.186253 -43.675799 -35.077627 -50.772060 -46.966136 13.367460 -15.751251 5.054092 -1.230284 -10.718827 -0.197158 3.760319 18.633586 -2.212827 1.933947 -7.921791 6.424307 0.000000 -0.000000 -0.000000 18.199554 -7.079978 10.064360 0.267925 14.233482 1.332144 6.937856 -9.927515 -2.974313 0.000000 -0.000000 0.000000
-25.608227 107.187337 320.111959 -146.115619 1.904103 -6.125395 3.929044 4.128160 1.291116 1.733571 1.845610 0.538459 1.733570 1.845611 0.538461 1.298439 1.385751 0.398580 -9.158240 16.288144 4.546063 -18.574384 -4.640485 11.613590 -1.450840 2.228238 7.253507 11.140439 -24.018099 52.691011 34.315890 -34.470185 32.295135 -6.660431 -22.219271 10.052892 0.809695 2.520709 -2.636441 -3.158214 -19.099303 -43.882363 -35.121352 -50.697756 -46.845890 13.474559 -15.708896 5.151948 -0.825340 -10.925313 -0.984593 0.389504 18.809237 -2.830265 3.825974 -7.816604 5.838294 0.000000 0.000000 0.000000 18.439414 -6.671470 9.879348 1.444937 14.331508 1.382131 7.570380 -10.109545 -2.996808 0.000000 -0.000000 0.000000
-25.787824 107.169623 320.300494 -148.096133 1.796397 -6.021431 3.861363 4.094636 1.347739 1.703127 1.830993 0.564494 1.703127 1.830993 0.564494 1.275546 1.374832 0.418234 -9.285752 16.245756 4.566961 -18.823432 -4.691133 11.701540 -1.516775 2.126615 7.217567 10.809278 -23.694661 52.601154 34.362863 -34.507006 32.374743 -6.769416 -22.198859 10.109344 0.822615 2.505903 -2.728745 -3.363341 -19.044946 -44.125420 -35.164040 -50.606234 -46.764472 13.567943 -15.663282 5.247418 -0.885300 -11.122622 -1.658188 -1.751704 18.803104 -3.178763 4.828746 -7.692364 5.458367 0.000000 0.000000 0.000000 18.748469 -6.247862 9.704293 2.557330 14.391703 1.423643 8.246122 -10.263378 -3.064733 0.000000 0.000000 0.000000
-25.935666 107.148323 320.411344 -150.150648 1.682779 -5.896609 3.810767 4.072453 1.380564 1.680437 1.821231 0.579695 1.680433 1.821213 0.579687 1.258489 1.367505 0.429718 -9.392352 16.197244 4.604807 -19.040652 -4.752623 11.814993 -1.579150 2.030504 7.207261 10.519056 -23.376014 52.480623 34.391882 -34.564272 32.473435 -6.859725 -22.172687 10.160594 0.826633 2.533004 -2.788286 -3.429522 -19.057582 -44.403862 -35.172605 -50.475655 -46.793060 13.626356 -15.613383 5.350184 -1.705377 -11.255503 -2.142594 -1.212871 18.525344 -2.904630 3.990601 -7.508752 5.508756 0.000000 0.000000 0.000000 19.261765 -5.806589 9.527601 3.464797 14.401721 1.454981 9.007064 -10.381356 -3.176237 0.000000 0.000000 0.000000
